<mxfile host="Electron" modified="2024-06-06T01:49:17.275Z" agent="Mozilla/5.0 (Windows NT 10.0; Win64; x64) AppleWebKit/537.36 (KHTML, like Gecko) draw.io/24.4.0 Chrome/120.0.6099.109 Electron/28.1.0 Safari/537.36" etag="vnZSpv4OeLyucwnQEqf8" version="24.4.0" type="device">
  <diagram name="pathlib中各部分关系图" id="nqDJwFpK6WcAsmU01bYh">
    <mxGraphModel dx="1183" dy="692" grid="1" gridSize="10" guides="1" tooltips="1" connect="1" arrows="1" fold="1" page="1" pageScale="1" pageWidth="827" pageHeight="1169" math="0" shadow="0">
      <root>
        <mxCell id="0" />
        <mxCell id="1" parent="0" />
        <mxCell id="v0PZ84wOnB4Pp2IwO1_j-7" style="edgeStyle=orthogonalEdgeStyle;rounded=0;orthogonalLoop=1;jettySize=auto;html=1;exitX=0.5;exitY=0;exitDx=0;exitDy=0;" edge="1" parent="1" source="v0PZ84wOnB4Pp2IwO1_j-1" target="v0PZ84wOnB4Pp2IwO1_j-2">
          <mxGeometry relative="1" as="geometry" />
        </mxCell>
        <mxCell id="v0PZ84wOnB4Pp2IwO1_j-1" value="Path" style="rounded=0;whiteSpace=wrap;html=1;fontFamily=Sarasa Mono SC;fontSize=20;fontStyle=1;fillColor=#e51400;fontColor=#ffffff;strokeColor=#B20000;" vertex="1" parent="1">
          <mxGeometry x="360" y="390" width="120" height="60" as="geometry" />
        </mxCell>
        <mxCell id="v0PZ84wOnB4Pp2IwO1_j-2" value="PurePath" style="rounded=0;whiteSpace=wrap;html=1;fontFamily=Sarasa Mono SC;fontSize=20;fontStyle=1;fillColor=#d5e8d4;strokeColor=#82b366;" vertex="1" parent="1">
          <mxGeometry x="360" y="220" width="120" height="60" as="geometry" />
        </mxCell>
        <mxCell id="v0PZ84wOnB4Pp2IwO1_j-13" style="rounded=0;orthogonalLoop=1;jettySize=auto;html=1;exitX=0.5;exitY=0;exitDx=0;exitDy=0;entryX=1;entryY=0.5;entryDx=0;entryDy=0;" edge="1" parent="1" source="v0PZ84wOnB4Pp2IwO1_j-3" target="v0PZ84wOnB4Pp2IwO1_j-2">
          <mxGeometry relative="1" as="geometry" />
        </mxCell>
        <mxCell id="v0PZ84wOnB4Pp2IwO1_j-3" value="PureWindowsPath" style="rounded=0;whiteSpace=wrap;html=1;fontFamily=Sarasa Mono SC;fontSize=20;fontStyle=1;fillColor=#f8cecc;strokeColor=#b85450;" vertex="1" parent="1">
          <mxGeometry x="590" y="290" width="170" height="60" as="geometry" />
        </mxCell>
        <mxCell id="v0PZ84wOnB4Pp2IwO1_j-10" style="rounded=0;orthogonalLoop=1;jettySize=auto;html=1;exitX=0.5;exitY=0;exitDx=0;exitDy=0;entryX=0.5;entryY=1;entryDx=0;entryDy=0;" edge="1" parent="1" source="v0PZ84wOnB4Pp2IwO1_j-4" target="v0PZ84wOnB4Pp2IwO1_j-3">
          <mxGeometry relative="1" as="geometry" />
        </mxCell>
        <mxCell id="v0PZ84wOnB4Pp2IwO1_j-11" style="rounded=0;orthogonalLoop=1;jettySize=auto;html=1;exitX=0.5;exitY=0;exitDx=0;exitDy=0;entryX=1;entryY=0.5;entryDx=0;entryDy=0;" edge="1" parent="1" source="v0PZ84wOnB4Pp2IwO1_j-4" target="v0PZ84wOnB4Pp2IwO1_j-1">
          <mxGeometry relative="1" as="geometry" />
        </mxCell>
        <mxCell id="v0PZ84wOnB4Pp2IwO1_j-4" value="WindowsPath" style="rounded=0;whiteSpace=wrap;html=1;fontFamily=Sarasa Mono SC;fontSize=20;fontStyle=1;fillColor=#d5e8d4;strokeColor=#82b366;" vertex="1" parent="1">
          <mxGeometry x="590" y="490" width="170" height="60" as="geometry" />
        </mxCell>
        <mxCell id="v0PZ84wOnB4Pp2IwO1_j-8" style="rounded=0;orthogonalLoop=1;jettySize=auto;html=1;exitX=0.5;exitY=0;exitDx=0;exitDy=0;entryX=0.5;entryY=1;entryDx=0;entryDy=0;" edge="1" parent="1" source="v0PZ84wOnB4Pp2IwO1_j-5" target="v0PZ84wOnB4Pp2IwO1_j-6">
          <mxGeometry relative="1" as="geometry" />
        </mxCell>
        <mxCell id="v0PZ84wOnB4Pp2IwO1_j-9" style="rounded=0;orthogonalLoop=1;jettySize=auto;html=1;exitX=0.5;exitY=0;exitDx=0;exitDy=0;entryX=0;entryY=0.5;entryDx=0;entryDy=0;" edge="1" parent="1" source="v0PZ84wOnB4Pp2IwO1_j-5" target="v0PZ84wOnB4Pp2IwO1_j-1">
          <mxGeometry relative="1" as="geometry" />
        </mxCell>
        <mxCell id="v0PZ84wOnB4Pp2IwO1_j-5" value="POSIXPath" style="rounded=0;whiteSpace=wrap;html=1;fontFamily=Sarasa Mono SC;fontSize=20;fontStyle=1;fillColor=#d5e8d4;strokeColor=#82b366;" vertex="1" parent="1">
          <mxGeometry x="100" y="490" width="170" height="60" as="geometry" />
        </mxCell>
        <mxCell id="v0PZ84wOnB4Pp2IwO1_j-12" style="rounded=0;orthogonalLoop=1;jettySize=auto;html=1;exitX=0.5;exitY=0;exitDx=0;exitDy=0;entryX=0;entryY=0.5;entryDx=0;entryDy=0;" edge="1" parent="1" source="v0PZ84wOnB4Pp2IwO1_j-6" target="v0PZ84wOnB4Pp2IwO1_j-2">
          <mxGeometry relative="1" as="geometry" />
        </mxCell>
        <mxCell id="v0PZ84wOnB4Pp2IwO1_j-6" value="PurePOSIXPath" style="rounded=0;whiteSpace=wrap;html=1;fontFamily=Sarasa Mono SC;fontSize=20;fontStyle=1;fillColor=#f8cecc;strokeColor=#b85450;" vertex="1" parent="1">
          <mxGeometry x="100" y="290" width="170" height="60" as="geometry" />
        </mxCell>
      </root>
    </mxGraphModel>
  </diagram>
</mxfile>
